<?xml version="1.0" encoding="utf-8"?>
<!-- Generator: Adobe Illustrator 24.0.3, SVG Export Plug-In . SVG Version: 6.00 Build 0)  -->
<svg version="1.1" id="Calque_1" xmlns="http://www.w3.org/2000/svg" xmlns:xlink="http://www.w3.org/1999/xlink" x="0px" y="0px"
	 viewBox="0 0 40.3 35.8" style="enable-background:new 0 0 40.3 35.8;" xml:space="preserve">
<style type="text/css">
	.st0{fill:#FFFFFF;stroke:#FFFFFF;stroke-miterlimit:10;}
	.st1{fill:#FFFFFF;}
</style>
<line class="st0" x1="37.6" y1="6.6" x2="2.7" y2="6.6"/>
<path class="st1" d="M14.8,10.6h-3.3c-1.3,0-2.4-1.1-2.4-2.4V5.3c0-1.3,1.1-2.4,2.4-2.4h3.3c1.3,0,2.4,1.1,2.4,2.4v2.8
	C17.3,9.5,16.2,10.6,14.8,10.6z"/>
<line class="st0" x1="37.6" y1="28.6" x2="2.7" y2="28.6"/>
<path class="st1" d="M14.8,32.6h-3.3c-1.3,0-2.4-1.1-2.4-2.4v-2.8c0-1.3,1.1-2.4,2.4-2.4h3.3c1.3,0,2.4,1.1,2.4,2.4v2.8
	C17.3,31.5,16.2,32.6,14.8,32.6z"/>
<line class="st0" x1="37.6" y1="17.8" x2="2.7" y2="17.8"/>
<path class="st1" d="M25.9,21.8h-3.3c-1.3,0-2.4-1.1-2.4-2.4v-2.8c0-1.3,1.1-2.4,2.4-2.4h3.3c1.3,0,2.4,1.1,2.4,2.4v2.8
	C28.4,20.7,27.3,21.8,25.9,21.8z"/>
</svg>
