<svg enable-background="new 0 0 40.3 35.8" viewBox="0 0 40.3 35.8" xmlns="http://www.w3.org/2000/svg"><g fill="#fff"><path d="m37.6 6.6h-34.9" stroke="#fff" stroke-miterlimit="10"/><path d="m14.8 10.6h-3.3c-1.3 0-2.4-1.1-2.4-2.4v-2.9c0-1.3 1.1-2.4 2.4-2.4h3.3c1.3 0 2.4 1.1 2.4 2.4v2.8c.1 1.4-1 2.5-2.4 2.5z"/><path d="m37.6 28.6h-34.9" stroke="#fff" stroke-miterlimit="10"/><path d="m14.8 32.6h-3.3c-1.3 0-2.4-1.1-2.4-2.4v-2.8c0-1.3 1.1-2.4 2.4-2.4h3.3c1.3 0 2.4 1.1 2.4 2.4v2.8c.1 1.3-1 2.4-2.4 2.4z"/><path d="m37.6 17.8h-34.9" stroke="#fff" stroke-miterlimit="10"/><path d="m25.9 21.8h-3.3c-1.3 0-2.4-1.1-2.4-2.4v-2.8c0-1.3 1.1-2.4 2.4-2.4h3.3c1.3 0 2.4 1.1 2.4 2.4v2.8c.1 1.3-1 2.4-2.4 2.4z"/></g></svg>