<svg enable-background="new 0 0 512 521" viewBox="0 0 512 521" xmlns="http://www.w3.org/2000/svg" xmlns:xlink="http://www.w3.org/1999/xlink"><linearGradient id="a"><stop offset="0" stop-color="#fee141"/><stop offset="1" stop-color="#fa7199"/></linearGradient><linearGradient id="b" gradientUnits="userSpaceOnUse" x1="143.976" x2="143.976" xlink:href="#a" y1="11.5625" y2="403.9229"/><linearGradient id="c" gradientUnits="userSpaceOnUse" x1="367.8801" x2="368.5971" xlink:href="#a" y1="19.0809" y2="420.1602"/><linearGradient id="d" gradientUnits="userSpaceOnUse" x1="367.9751" x2="367.9751" xlink:href="#a" y1="3.4511" y2="518.4035"/><linearGradient id="e" gradientUnits="userSpaceOnUse" x1="143.9808" x2="143.9808" xlink:href="#a" y1="12.6589" y2="505.2139"/><g stroke="#000" stroke-miterlimit="10" stroke-width="15"><circle cx="144" cy="73" fill="url(#b)" r="64"/><circle cx="368" cy="72.7" fill="url(#c)" r="64"/><path d="m438.2 320.8h9.8c8.8.1 16.1-7 16.1-15.9 0-.7 0-1.4-.1-2.1l-14.4-113.4c-1.9-16.3-15.6-28.6-32-28.6h-99.2c-16.4-.1-30.2 12.1-32 28.4l-14.4 113.6c-1.1 8.8 5.1 16.8 13.9 17.9.7.1 1.4.1 2.1.1h9.8l-25 74.9c-2.8 8.4 1.7 17.4 10.1 20.2 1.6.5 3.3.8 5 .8h18.4l11.7 69.3c2.6 15.4 15.9 26.8 31.6 26.8h36.9c15.6 0 29-11.3 31.6-26.8l11.6-69.2h18.3c8.8 0 16-7.1 16-16 0-1.7-.3-3.4-.8-5.1z" fill="url(#d)"/><path d="m161.5 513.3h-35.2c-16.4 0-30.2-12.5-31.8-28.8l-13-131.2h-17.5c-4.5 0-8.8-1.9-11.9-5.3-3.1-3.3-4.6-7.8-4.1-12.3l14.7-145.6c1.6-16.3 15.4-28.8 31.8-28.8h17.5c4.2 0 8.3 1.7 11.3 4.7l20.7 20.7 20.7-20.7c3-3 7.1-4.7 11.3-4.7h17.5c16.4 0 30.2 12.5 31.8 28.8l14.7 145.6c.5 4.5-1 9-4 12.3-3.1 3.4-7.4 5.3-12 5.3h-17.5l-13.1 131.2c-1.7 16.4-15.5 28.8-31.9 28.8z" fill="url(#e)"/></g></svg>