<?xml version="1.0" encoding="utf-8"?>
<!-- Generator: Adobe Illustrator 24.0.3, SVG Export Plug-In . SVG Version: 6.00 Build 0)  -->
<svg version="1.1" id="Capa_1" xmlns="http://www.w3.org/2000/svg" xmlns:xlink="http://www.w3.org/1999/xlink" x="0px" y="0px"
	 viewBox="0 0 512 521" style="enable-background:new 0 0 512 521;" xml:space="preserve">
<style type="text/css">
	.st0{fill:url(#SVGID_1_);stroke:#000000;stroke-width:15;stroke-miterlimit:10;}
	.st1{fill:url(#SVGID_2_);stroke:#000000;stroke-width:15;stroke-miterlimit:10;}
	.st2{fill:url(#SVGID_3_);stroke:#000000;stroke-width:15;stroke-miterlimit:10;}
	.st3{fill:url(#SVGID_4_);stroke:#000000;stroke-width:15;stroke-miterlimit:10;}
</style>
<g>
	<linearGradient id="SVGID_1_" gradientUnits="userSpaceOnUse" x1="143.976" y1="11.5625" x2="143.976" y2="403.9229">
		<stop  offset="0" style="stop-color:#FEE141"/>
		<stop  offset="1" style="stop-color:#FA7199"/>
	</linearGradient>
	<circle class="st0" cx="144" cy="73" r="64"/>
	<linearGradient id="SVGID_2_" gradientUnits="userSpaceOnUse" x1="367.8801" y1="19.0809" x2="368.5971" y2="420.1602">
		<stop  offset="0" style="stop-color:#FEE141"/>
		<stop  offset="1" style="stop-color:#FA7199"/>
	</linearGradient>
	<circle class="st1" cx="368" cy="72.7" r="64"/>
	<linearGradient id="SVGID_3_" gradientUnits="userSpaceOnUse" x1="367.9751" y1="3.4511" x2="367.9751" y2="518.4035">
		<stop  offset="0" style="stop-color:#FEE141"/>
		<stop  offset="1" style="stop-color:#FA7199"/>
	</linearGradient>
	<path class="st2" d="M438.2,320.8h9.8c8.8,0.1,16.1-7,16.1-15.9c0-0.7,0-1.4-0.1-2.1l-14.4-113.4c-1.9-16.3-15.6-28.6-32-28.6
		h-99.2c-16.4-0.1-30.2,12.1-32,28.4L272,302.8c-1.1,8.8,5.1,16.8,13.9,17.9c0.7,0.1,1.4,0.1,2.1,0.1h9.8l-25,74.9
		c-2.8,8.4,1.7,17.4,10.1,20.2c1.6,0.5,3.3,0.8,5,0.8h18.4L318,486c2.6,15.4,15.9,26.8,31.6,26.8h36.9c15.6,0,29-11.3,31.6-26.8
		l11.6-69.2H448c8.8,0,16-7.1,16-16c0-1.7-0.3-3.4-0.8-5.1L438.2,320.8z"/>
</g>
<linearGradient id="SVGID_4_" gradientUnits="userSpaceOnUse" x1="143.9808" y1="12.6589" x2="143.9808" y2="505.2139">
	<stop  offset="0" style="stop-color:#FEE141"/>
	<stop  offset="1" style="stop-color:#FA7199"/>
</linearGradient>
<path class="st3" d="M161.5,513.3h-35.2c-16.4,0-30.2-12.5-31.8-28.8l-13-131.2H64c-4.5,0-8.8-1.9-11.9-5.3
	c-3.1-3.3-4.6-7.8-4.1-12.3l14.7-145.6c1.6-16.3,15.4-28.8,31.8-28.8H112c4.2,0,8.3,1.7,11.3,4.7l20.7,20.7l20.7-20.7
	c3-3,7.1-4.7,11.3-4.7h17.5c16.4,0,30.2,12.5,31.8,28.8L240,335.7c0.5,4.5-1,9-4,12.3c-3.1,3.4-7.4,5.3-12,5.3h-17.5l-13.1,131.2
	C191.7,500.9,177.9,513.3,161.5,513.3z"/>
</svg>
