<svg enable-background="new 0 0 427.058 427.058" viewBox="0 0 427.058 427.058" xmlns="http://www.w3.org/2000/svg"><path d="m364.845 11.045c-7.148-3.292-15.569-2.012-21.416 3.254l-27.754 24.575-37.76-33.777c-7.586-6.796-19.071-6.796-26.657 0l-37.729 33.745-37.738-33.745c-7.588-6.796-19.074-6.796-26.662 0l-37.77 33.777-27.78-24.574c-8.197-7.286-20.749-6.547-28.035 1.65-3.262 3.67-5.049 8.419-5.015 13.329v368.5c-.065 10.983 8.786 19.939 19.769 20.004 4.911.029 9.66-1.761 13.331-5.024l27.754-24.575 37.76 33.777c7.586 6.796 19.071 6.796 26.657 0l37.729-33.749 37.735 33.745c7.588 6.795 19.074 6.795 26.662 0l37.77-33.776 27.78 24.574c8.196 7.288 20.748 6.552 28.035-1.644 3.265-3.671 5.052-8.423 5.018-13.336v-368.496c.099-7.867-4.496-15.037-11.684-18.234zm-35.94 362.156c-7.587-6.721-19.007-6.691-26.558.071l-37.759 33.776-37.73-33.745c-7.587-6.796-19.073-6.796-26.66 0l-37.734 33.745-37.775-33.776c-7.522-6.761-18.922-6.792-26.481-.072l-27.679 24.568v-53.305l-.1-315.179 27.724 24.569c7.587 6.721 19.007 6.691 26.558-.071l37.759-33.776 37.73 33.745c7.587 6.796 19.073 6.796 26.66 0l37.734-33.745 37.775 33.776c7.522 6.761 18.922 6.792 26.481.072l27.679-24.575v253.312l.1 115.179z"/><path d="m308.322 203.527h-189.586c-5.523 0-10 4.477-10 10s4.477 10 10 10h189.586c5.523 0 10-4.477 10-10s-4.478-10-10-10z"/><path d="m218.322 143.527h-99.586c-5.523 0-10 4.477-10 10s4.477 10 10 10h99.586c5.523 0 10-4.477 10-10s-4.478-10-10-10z"/><path d="m308.322 263.527h-189.586c-5.523 0-10 4.477-10 10s4.477 10 10 10h189.586c5.523 0 10-4.477 10-10s-4.478-10-10-10z"/></svg>