<svg enable-background="new 0 0 512 512" viewBox="0 0 512 512" xmlns="http://www.w3.org/2000/svg"><path d="m508.875 493.792-155.786-155.787c32.358-35.927 52.245-83.296 52.245-135.339-.001-111.749-90.917-202.666-202.667-202.666s-202.667 90.917-202.667 202.667 90.917 202.667 202.667 202.667c52.043 0 99.411-19.887 135.339-52.245l155.786 155.786c2.083 2.083 4.813 3.125 7.542 3.125s5.458-1.042 7.542-3.125c4.166-4.167 4.166-10.917-.001-15.083zm-306.208-109.792c-99.979 0-181.333-81.344-181.333-181.333s81.354-181.334 181.333-181.334 181.333 81.344 181.333 181.334-81.354 181.333-181.333 181.333z"/></svg>