<svg enable-background="new 0 0 511.999 511.999" viewBox="0 0 511.999 511.999" xmlns="http://www.w3.org/2000/svg"><path d="m506.175 365.576c-4.095-10.258-15.729-15.255-25.987-11.16s-15.255 15.729-11.16 25.987c5.206 13.043 3.499 27.935-4.567 39.839-8.07 11.91-20.991 18.741-35.449 18.741h-345.944c-15.771 0-29.776-8.229-37.465-22.015-7.701-13.809-7.339-30.082.968-43.533l172.972-280.053c7.876-12.752 21.519-20.365 36.497-20.365s28.62 7.613 36.497 20.365l127.927 207.124c5.804 9.397 18.128 12.312 27.523 6.505 9.396-5.803 12.31-18.126 6.505-27.523l-127.928-207.124c-15.216-24.636-41.58-39.344-70.525-39.344s-55.309 14.709-70.525 39.344l-172.972 280.054c-16.036 25.966-16.734 57.38-1.869 84.033 14.853 26.63 41.916 42.528 72.395 42.528h345.944c27.938 0 52.927-13.233 68.56-36.303 15.516-22.898 18.731-51.721 8.603-77.1z"/><path d="m256.049 399.987c11.045 0 19.998-8.953 19.998-19.998s-8.953-19.998-19.998-19.998h-.01c-11.045 0-19.993 8.953-19.993 19.998s8.958 19.998 20.003 19.998z"/><path d="m276.038 309.995v-146.987c0-11.045-8.953-19.998-19.998-19.998s-19.998 8.953-19.998 19.998v146.987c0 11.045 8.953 19.998 19.998 19.998s19.998-8.953 19.998-19.998z"/></svg>