<svg enable-background="new 0 0 490 490" viewBox="0 0 490 490" xmlns="http://www.w3.org/2000/svg"><path d="m445.06 154.352c-34.945-76.984-111.827-127.525-196.43-128.927-87.761-1.454-167.512 49.093-203.714 128.93-25.316 3.374-44.916 25.096-44.916 51.32v78.647c0 26.227 19.604 47.95 44.924 51.321 35.593 78.523 113.525 128.962 200.076 128.962 86.558 0 164.489-50.435 200.077-128.963 25.319-3.371 44.923-25.094 44.923-51.32v-78.647c0-26.232-19.613-47.959-44.94-51.323zm-196.74-110.239c74.364 1.232 142.218 43.957 175.786 109.772h-358.235c34.728-68.292 105.197-111.052 182.449-109.772zm-3.32 401.802c-76.138 0-144.986-42.66-179.12-109.803h358.24c-34.131 67.143-102.976 109.803-179.12 109.803zm226.31-161.593c0 18.252-14.848 33.1-33.1 33.1h-386.42c-18.252 0-33.1-14.848-33.1-33.1v-78.647c0-18.252 14.848-33.1 33.1-33.1h386.42c18.252 0 33.1 14.848 33.1 33.1z"/><path d="m135.931 258.049-15.797-48.897h-21.811l-15.797 48.897-15.797-48.897h-23.326l27.533 80.942h23.316l15.05-44.083 14.893 44.083h23.472l27.533-80.942h-23.472z"/><path d="m271.634 258.049-15.797-48.897h-21.811l-15.798 48.897-15.796-48.897h-23.326l27.533 80.942h23.316l15.05-44.083 14.893 44.083h23.471l27.534-80.942h-23.472z"/><path d="m407.337 258.049-15.798-48.897h-21.81l-15.798 48.897-15.796-48.897h-23.326l27.533 80.942h23.316l15.05-44.083 14.893 44.083h23.471l27.533-80.942h-23.471z"/></svg>